<svg xmlns="http://www.w3.org/2000/svg" viewBox="0 0 240 240" width="240" height="240">
  <rect width="240" height="240" rx="40" fill="#0a0a0c"/>
  <g stroke="#e6b23c" stroke-linecap="round">
    <!-- teeth -->
    <g>
      <line x1="120" y1="18" x2="120" y2="30" stroke-width="2.4"/>
      <line x1="171" y1="31.6" x2="165" y2="42" stroke-width="1.2"/>
      <line x1="208.4" y1="69" x2="198" y2="75" stroke-width="1.2"/>
      <line x1="222" y1="120" x2="210" y2="120" stroke-width="2.4"/>
      <line x1="208.4" y1="171" x2="198" y2="165" stroke-width="1.2"/>
      <line x1="171" y1="208.4" x2="165" y2="198" stroke-width="1.2"/>
      <line x1="120" y1="222" x2="120" y2="210" stroke-width="2.4"/>
      <line x1="69" y1="208.4" x2="75" y2="198" stroke-width="1.2"/>
      <line x1="31.6" y1="171" x2="42" y2="165" stroke-width="1.2"/>
      <line x1="18" y1="120" x2="30" y2="120" stroke-width="2.4"/>
      <line x1="31.6" y1="69" x2="42" y2="75" stroke-width="1.2"/>
      <line x1="69" y1="31.6" x2="75" y2="42" stroke-width="1.2"/>
    </g>
    <circle cx="120" cy="120" r="92" fill="none" stroke-width="1.6" opacity="0.85"/>
    <circle cx="120" cy="120" r="70" fill="none" stroke-width="1" opacity="0.4"/>
  </g>
  <text x="120" y="150" text-anchor="middle" fill="#43d6a0"
    font-family="'JetBrains Mono', ui-monospace, monospace" font-size="86" font-weight="700" letter-spacing="-3">V</text>
</svg>
